<mxfile host="app.diagrams.net" modified="2021-05-22T09:35:25.931Z" agent="5.0 (Windows NT 10.0; Win64; x64) AppleWebKit/537.36 (KHTML, like Gecko) Chrome/90.0.4430.212 Safari/537.36" etag="jOzU_ygtFL-5A1_Sn-em" version="14.7.0" type="github">
  <diagram name="Page-1" id="e7e014a7-5840-1c2e-5031-d8a46d1fe8dd">
    <mxGraphModel dx="1185" dy="635" grid="0" gridSize="10" guides="1" tooltips="1" connect="1" arrows="1" fold="1" page="1" pageScale="1" pageWidth="1169" pageHeight="826" background="#FFFFFF" math="0" shadow="0">
      <root>
        <mxCell id="0" />
        <mxCell id="1" parent="0" />
        <mxCell id="R7esfnajXAWrdQgtue4j-41" value="User" style="shape=umlActor;verticalLabelPosition=bottom;verticalAlign=top;html=1;outlineConnect=0;" vertex="1" parent="1">
          <mxGeometry x="319" y="299" width="40" height="80" as="geometry" />
        </mxCell>
        <mxCell id="R7esfnajXAWrdQgtue4j-42" value="Admin&lt;br&gt;" style="shape=umlActor;verticalLabelPosition=bottom;verticalAlign=top;html=1;outlineConnect=0;" vertex="1" parent="1">
          <mxGeometry x="719" y="299" width="40" height="80" as="geometry" />
        </mxCell>
        <mxCell id="R7esfnajXAWrdQgtue4j-43" value="Авторизация" style="ellipse;whiteSpace=wrap;html=1;" vertex="1" parent="1">
          <mxGeometry x="479" y="50" width="120" height="80" as="geometry" />
        </mxCell>
        <mxCell id="R7esfnajXAWrdQgtue4j-44" value="Регистрация" style="ellipse;whiteSpace=wrap;html=1;" vertex="1" parent="1">
          <mxGeometry x="159" y="299" width="120" height="80" as="geometry" />
        </mxCell>
        <mxCell id="R7esfnajXAWrdQgtue4j-49" value="Просмотр главной страницы" style="ellipse;whiteSpace=wrap;html=1;" vertex="1" parent="1">
          <mxGeometry x="479" y="150" width="120" height="80" as="geometry" />
        </mxCell>
        <mxCell id="R7esfnajXAWrdQgtue4j-51" value="" style="endArrow=classic;html=1;exitX=0.5;exitY=0.5;exitDx=0;exitDy=0;exitPerimeter=0;entryX=1;entryY=0.5;entryDx=0;entryDy=0;" edge="1" parent="1" source="R7esfnajXAWrdQgtue4j-41" target="R7esfnajXAWrdQgtue4j-44">
          <mxGeometry width="50" height="50" relative="1" as="geometry">
            <mxPoint x="559" y="269" as="sourcePoint" />
            <mxPoint x="609" y="219" as="targetPoint" />
          </mxGeometry>
        </mxCell>
        <mxCell id="R7esfnajXAWrdQgtue4j-52" value="" style="endArrow=classic;html=1;entryX=0;entryY=0.5;entryDx=0;entryDy=0;exitX=0.5;exitY=0.5;exitDx=0;exitDy=0;exitPerimeter=0;" edge="1" parent="1" source="R7esfnajXAWrdQgtue4j-41" target="R7esfnajXAWrdQgtue4j-43">
          <mxGeometry width="50" height="50" relative="1" as="geometry">
            <mxPoint x="559" y="269" as="sourcePoint" />
            <mxPoint x="609" y="219" as="targetPoint" />
          </mxGeometry>
        </mxCell>
        <mxCell id="R7esfnajXAWrdQgtue4j-53" value="" style="endArrow=classic;html=1;entryX=1;entryY=0.5;entryDx=0;entryDy=0;exitX=0.5;exitY=0.5;exitDx=0;exitDy=0;exitPerimeter=0;" edge="1" parent="1" source="R7esfnajXAWrdQgtue4j-42" target="R7esfnajXAWrdQgtue4j-43">
          <mxGeometry width="50" height="50" relative="1" as="geometry">
            <mxPoint x="559" y="269" as="sourcePoint" />
            <mxPoint x="609" y="219" as="targetPoint" />
          </mxGeometry>
        </mxCell>
        <mxCell id="R7esfnajXAWrdQgtue4j-54" value="" style="endArrow=classic;html=1;exitX=0.5;exitY=0.5;exitDx=0;exitDy=0;exitPerimeter=0;entryX=1;entryY=0.5;entryDx=0;entryDy=0;" edge="1" parent="1" source="R7esfnajXAWrdQgtue4j-42" target="R7esfnajXAWrdQgtue4j-49">
          <mxGeometry width="50" height="50" relative="1" as="geometry">
            <mxPoint x="559" y="389" as="sourcePoint" />
            <mxPoint x="459" y="419" as="targetPoint" />
          </mxGeometry>
        </mxCell>
        <mxCell id="R7esfnajXAWrdQgtue4j-55" value="" style="endArrow=classic;html=1;exitX=0.5;exitY=0.5;exitDx=0;exitDy=0;exitPerimeter=0;entryX=0;entryY=0.5;entryDx=0;entryDy=0;" edge="1" parent="1" source="R7esfnajXAWrdQgtue4j-41" target="R7esfnajXAWrdQgtue4j-49">
          <mxGeometry width="50" height="50" relative="1" as="geometry">
            <mxPoint x="559" y="389" as="sourcePoint" />
            <mxPoint x="539" y="419" as="targetPoint" />
          </mxGeometry>
        </mxCell>
        <mxCell id="R7esfnajXAWrdQgtue4j-56" value="Просмотр&amp;nbsp; объявлений" style="ellipse;whiteSpace=wrap;html=1;" vertex="1" parent="1">
          <mxGeometry x="479" y="250" width="120" height="80" as="geometry" />
        </mxCell>
        <mxCell id="R7esfnajXAWrdQgtue4j-57" value="" style="endArrow=classic;html=1;entryX=0;entryY=0.5;entryDx=0;entryDy=0;" edge="1" parent="1" target="R7esfnajXAWrdQgtue4j-56">
          <mxGeometry width="50" height="50" relative="1" as="geometry">
            <mxPoint x="339" y="339" as="sourcePoint" />
            <mxPoint x="509" y="349" as="targetPoint" />
          </mxGeometry>
        </mxCell>
        <mxCell id="R7esfnajXAWrdQgtue4j-58" value="" style="endArrow=classic;html=1;entryX=1;entryY=0.5;entryDx=0;entryDy=0;exitX=0.5;exitY=0.5;exitDx=0;exitDy=0;exitPerimeter=0;" edge="1" parent="1" source="R7esfnajXAWrdQgtue4j-42" target="R7esfnajXAWrdQgtue4j-56">
          <mxGeometry width="50" height="50" relative="1" as="geometry">
            <mxPoint x="349" y="348.9999999999999" as="sourcePoint" />
            <mxPoint x="489" y="388.9999999999999" as="targetPoint" />
          </mxGeometry>
        </mxCell>
        <mxCell id="R7esfnajXAWrdQgtue4j-59" value="Просмотр&amp;nbsp; подробной информации об объявлении" style="ellipse;whiteSpace=wrap;html=1;" vertex="1" parent="1">
          <mxGeometry x="479" y="360" width="120" height="80" as="geometry" />
        </mxCell>
        <mxCell id="R7esfnajXAWrdQgtue4j-60" value="" style="endArrow=classic;html=1;entryX=0;entryY=0.5;entryDx=0;entryDy=0;" edge="1" parent="1" target="R7esfnajXAWrdQgtue4j-59">
          <mxGeometry width="50" height="50" relative="1" as="geometry">
            <mxPoint x="339" y="339" as="sourcePoint" />
            <mxPoint x="509" y="329" as="targetPoint" />
          </mxGeometry>
        </mxCell>
        <mxCell id="R7esfnajXAWrdQgtue4j-61" value="" style="endArrow=classic;html=1;entryX=1;entryY=0.5;entryDx=0;entryDy=0;exitX=0.5;exitY=0.5;exitDx=0;exitDy=0;exitPerimeter=0;" edge="1" parent="1" source="R7esfnajXAWrdQgtue4j-42" target="R7esfnajXAWrdQgtue4j-59">
          <mxGeometry width="50" height="50" relative="1" as="geometry">
            <mxPoint x="349" y="348.9999999999999" as="sourcePoint" />
            <mxPoint x="489" y="509" as="targetPoint" />
          </mxGeometry>
        </mxCell>
        <mxCell id="R7esfnajXAWrdQgtue4j-62" value="Добавление объявления в избранное" style="ellipse;whiteSpace=wrap;html=1;" vertex="1" parent="1">
          <mxGeometry x="159" y="419" width="120" height="80" as="geometry" />
        </mxCell>
        <mxCell id="R7esfnajXAWrdQgtue4j-63" value="" style="endArrow=classic;html=1;entryX=0.785;entryY=0.108;entryDx=0;entryDy=0;entryPerimeter=0;" edge="1" parent="1" target="R7esfnajXAWrdQgtue4j-62">
          <mxGeometry width="50" height="50" relative="1" as="geometry">
            <mxPoint x="339" y="339" as="sourcePoint" />
            <mxPoint x="499" y="419" as="targetPoint" />
          </mxGeometry>
        </mxCell>
        <mxCell id="R7esfnajXAWrdQgtue4j-64" value="Изменение объявления" style="ellipse;whiteSpace=wrap;html=1;" vertex="1" parent="1">
          <mxGeometry x="799" y="419" width="120" height="80" as="geometry" />
        </mxCell>
        <mxCell id="R7esfnajXAWrdQgtue4j-65" value="" style="endArrow=classic;html=1;entryX=0;entryY=0;entryDx=0;entryDy=0;exitX=0.5;exitY=0.5;exitDx=0;exitDy=0;exitPerimeter=0;" edge="1" parent="1" source="R7esfnajXAWrdQgtue4j-42" target="R7esfnajXAWrdQgtue4j-64">
          <mxGeometry width="50" height="50" relative="1" as="geometry">
            <mxPoint x="579" y="399" as="sourcePoint" />
            <mxPoint x="629" y="349" as="targetPoint" />
          </mxGeometry>
        </mxCell>
        <mxCell id="R7esfnajXAWrdQgtue4j-66" value="Удаление объявления" style="ellipse;whiteSpace=wrap;html=1;" vertex="1" parent="1">
          <mxGeometry x="799" y="299" width="120" height="80" as="geometry" />
        </mxCell>
        <mxCell id="R7esfnajXAWrdQgtue4j-67" value="" style="endArrow=classic;html=1;entryX=0;entryY=0.5;entryDx=0;entryDy=0;" edge="1" parent="1" target="R7esfnajXAWrdQgtue4j-66">
          <mxGeometry width="50" height="50" relative="1" as="geometry">
            <mxPoint x="739" y="339" as="sourcePoint" />
            <mxPoint x="819" y="219" as="targetPoint" />
          </mxGeometry>
        </mxCell>
        <mxCell id="R7esfnajXAWrdQgtue4j-68" value="Создание объявления" style="ellipse;whiteSpace=wrap;html=1;" vertex="1" parent="1">
          <mxGeometry x="799" y="179" width="120" height="80" as="geometry" />
        </mxCell>
        <mxCell id="R7esfnajXAWrdQgtue4j-69" value="" style="endArrow=classic;html=1;entryX=-0.007;entryY=0.635;entryDx=0;entryDy=0;entryPerimeter=0;exitX=0.5;exitY=0.5;exitDx=0;exitDy=0;exitPerimeter=0;" edge="1" parent="1" source="R7esfnajXAWrdQgtue4j-42" target="R7esfnajXAWrdQgtue4j-68">
          <mxGeometry width="50" height="50" relative="1" as="geometry">
            <mxPoint x="579" y="349" as="sourcePoint" />
            <mxPoint x="629" y="299" as="targetPoint" />
          </mxGeometry>
        </mxCell>
        <mxCell id="R7esfnajXAWrdQgtue4j-70" value="Сортировка объявлений" style="ellipse;whiteSpace=wrap;html=1;" vertex="1" parent="1">
          <mxGeometry x="479" y="460" width="120" height="80" as="geometry" />
        </mxCell>
        <mxCell id="R7esfnajXAWrdQgtue4j-71" value="Поиск объявлений по названию" style="ellipse;whiteSpace=wrap;html=1;" vertex="1" parent="1">
          <mxGeometry x="479" y="560" width="120" height="80" as="geometry" />
        </mxCell>
        <mxCell id="R7esfnajXAWrdQgtue4j-72" value="" style="endArrow=classic;html=1;entryX=1;entryY=0.5;entryDx=0;entryDy=0;" edge="1" parent="1" target="R7esfnajXAWrdQgtue4j-70">
          <mxGeometry width="50" height="50" relative="1" as="geometry">
            <mxPoint x="740" y="340" as="sourcePoint" />
            <mxPoint x="630" y="370" as="targetPoint" />
          </mxGeometry>
        </mxCell>
        <mxCell id="R7esfnajXAWrdQgtue4j-73" value="" style="endArrow=classic;html=1;entryX=1;entryY=0.5;entryDx=0;entryDy=0;exitX=0.5;exitY=0.5;exitDx=0;exitDy=0;exitPerimeter=0;" edge="1" parent="1" source="R7esfnajXAWrdQgtue4j-42" target="R7esfnajXAWrdQgtue4j-71">
          <mxGeometry width="50" height="50" relative="1" as="geometry">
            <mxPoint x="660" y="560" as="sourcePoint" />
            <mxPoint x="610" y="620" as="targetPoint" />
          </mxGeometry>
        </mxCell>
        <mxCell id="R7esfnajXAWrdQgtue4j-74" value="" style="endArrow=classic;html=1;entryX=0;entryY=0.5;entryDx=0;entryDy=0;exitX=0.5;exitY=0.5;exitDx=0;exitDy=0;exitPerimeter=0;" edge="1" parent="1" source="R7esfnajXAWrdQgtue4j-41" target="R7esfnajXAWrdQgtue4j-70">
          <mxGeometry width="50" height="50" relative="1" as="geometry">
            <mxPoint x="420" y="540" as="sourcePoint" />
            <mxPoint x="470" y="490" as="targetPoint" />
          </mxGeometry>
        </mxCell>
        <mxCell id="R7esfnajXAWrdQgtue4j-75" value="" style="endArrow=classic;html=1;entryX=0;entryY=0.5;entryDx=0;entryDy=0;exitX=0.5;exitY=0.5;exitDx=0;exitDy=0;exitPerimeter=0;" edge="1" parent="1" source="R7esfnajXAWrdQgtue4j-41" target="R7esfnajXAWrdQgtue4j-71">
          <mxGeometry width="50" height="50" relative="1" as="geometry">
            <mxPoint x="390" y="580" as="sourcePoint" />
            <mxPoint x="440" y="530" as="targetPoint" />
          </mxGeometry>
        </mxCell>
      </root>
    </mxGraphModel>
  </diagram>
</mxfile>
